<svg xmlns="http://www.w3.org/2000/svg" width="200" height="200" viewBox="0 0 200 200" version="1.1"><path d="M 100.500 35.011 C 84.963 36.061, 82.069 36.955, 67.032 45.348 C 63.492 47.324, 47 63.540, 47 65.045 C 47 65.541, 46.141 67.871, 45.091 70.223 C 44.041 72.575, 42.653 76.525, 42.006 79 C 41.358 81.475, 39.932 85.845, 38.835 88.711 C 37.662 91.776, 37.118 94.797, 37.514 96.045 C 37.885 97.212, 38.787 101.617, 39.519 105.834 C 41.841 119.204, 43.656 125.032, 46.387 127.882 C 47.824 129.382, 49 131.119, 49 131.742 C 49 132.365, 52.712 136.646, 57.250 141.257 C 62.904 147.002, 67.306 150.490, 71.240 152.344 C 78.513 155.771, 88.662 158.970, 92.316 158.987 C 93.864 158.994, 95.930 159.427, 96.906 159.950 C 100.018 161.615, 120.920 157.615, 127.994 154 C 132.853 151.517, 141.653 145.512, 145.909 141.775 C 150.704 137.565, 157.556 126.254, 161.221 116.500 C 167.638 99.417, 164.938 78.363, 154.422 63.500 C 152.476 60.750, 150.167 57.375, 149.290 56 C 145.092 49.417, 129.338 39.411, 120.108 37.464 C 116.593 36.723, 113.240 35.640, 112.658 35.058 C 112.076 34.476, 111.352 34.075, 111.050 34.168 C 110.748 34.260, 106 34.640, 100.500 35.011 M 64.851 86.270 C 54.722 102.600, 49.607 111.731, 50.351 112.155 C 50.983 112.515, 53.608 113.124, 56.184 113.509 L 60.867 114.207 63.914 109.354 C 65.589 106.684, 67.102 104.099, 67.277 103.609 C 67.544 102.859, 82.831 105.043, 88.145 106.589 C 89.115 106.872, 90.053 108.593, 90.429 110.784 C 91.957 119.665, 92.053 119.864, 95.317 120.875 C 97.068 121.417, 100.374 122.150, 102.664 122.503 L 106.828 123.147 107.873 117.823 C 108.449 114.896, 109.435 109.746, 110.064 106.379 L 111.209 100.258 114.678 101.040 C 119.888 102.215, 121.470 104.215, 126.689 116.228 C 129.984 123.813, 132.122 127.476, 133.575 128.029 C 136.225 129.036, 145 130.380, 145 129.779 C 145 127.934, 136.500 109.034, 134.478 106.382 L 131.939 103.053 134.719 102.489 C 143.400 100.727, 148.034 95.477, 148.223 87.192 C 148.365 80.975, 145.800 76.370, 140.733 73.740 C 136.815 71.708, 107.244 65.422, 106.255 66.412 C 105.945 66.722, 104.462 73.530, 102.959 81.541 C 101.457 89.551, 100.044 96.290, 99.819 96.514 C 99.594 96.739, 97.917 89.317, 96.091 80.020 L 92.773 63.117 87.837 62.058 C 85.123 61.476, 82.361 61.009, 81.701 61.020 C 81.040 61.031, 73.458 72.394, 64.851 86.270 M 78.332 84.846 L 73.164 93.500 77.832 94.654 C 80.399 95.289, 83.662 95.851, 85.083 95.904 L 87.665 96 86.083 86.575 C 85.212 81.391, 84.275 76.934, 84 76.671 C 83.725 76.408, 81.174 80.086, 78.332 84.846 M 114.210 84.149 C 113.581 87.531, 113.256 90.605, 113.488 90.981 C 114.337 92.354, 131.145 94.398, 132.856 93.335 C 135.575 91.649, 137.140 87.498, 136.094 84.748 C 135.070 82.055, 132.152 80.660, 124.201 79.064 C 115.424 77.302, 115.489 77.269, 114.210 84.149" stroke="none" fill="#85d8e0" fill-rule="evenodd"/><path d="M 89 6.956 C 87.075 7.434, 83.475 8.522, 81 9.374 C 78.525 10.227, 73.962 11.412, 70.859 12.009 C 60.238 14.053, 35.638 32.176, 28.986 42.857 C 27.053 45.961, 24.578 49.522, 23.486 50.772 C 21.263 53.315, 17.160 62.722, 13.355 74 C 11.218 80.334, 10.808 83.444, 10.722 94 C 10.541 116.029, 15.625 135.668, 24.052 145.500 C 24.995 146.600, 26.498 148.949, 27.393 150.719 C 29.705 155.295, 43.031 168.418, 49.811 172.796 C 52.966 174.833, 57.561 177.342, 60.023 178.372 C 62.486 179.401, 66.300 181.092, 68.500 182.129 C 72.397 183.966, 79.398 185.962, 87.500 187.544 C 92.727 188.565, 110.895 188.170, 118.416 186.873 C 126.660 185.450, 142.516 178.938, 151.042 173.473 C 154.981 170.948, 162.096 165.020, 166.852 160.299 C 178.656 148.584, 181.231 144.235, 188.352 124 C 193.519 109.315, 194.963 98.568, 192.603 92.351 C 191.799 90.233, 190.969 84.638, 190.758 79.917 C 190.487 73.836, 189.785 70.192, 188.348 67.417 C 187.232 65.263, 185.987 62.150, 185.581 60.500 C 185.175 58.850, 182.741 54.406, 180.171 50.624 C 177.602 46.843, 174.354 41.893, 172.953 39.624 C 171.552 37.356, 169.499 35.092, 168.391 34.594 C 167.283 34.095, 165.501 32.457, 164.432 30.952 C 162.558 28.314, 152.265 20, 150.873 20 C 150.499 20, 147.429 18.438, 144.052 16.529 C 140.675 14.620, 133.513 11.701, 128.137 10.042 C 120.064 7.551, 116.113 6.945, 105.432 6.557 C 98.319 6.299, 90.925 6.478, 89 6.956 M 100.500 35.011 C 84.963 36.061, 82.069 36.955, 67.032 45.348 C 63.492 47.324, 47 63.540, 47 65.045 C 47 65.541, 46.141 67.871, 45.091 70.223 C 44.041 72.575, 42.653 76.525, 42.006 79 C 41.358 81.475, 39.932 85.845, 38.835 88.711 C 37.662 91.776, 37.118 94.797, 37.514 96.045 C 37.885 97.212, 38.787 101.617, 39.519 105.834 C 41.841 119.204, 43.656 125.032, 46.387 127.882 C 47.824 129.382, 49 131.119, 49 131.742 C 49 132.365, 52.712 136.646, 57.250 141.257 C 62.904 147.002, 67.306 150.490, 71.240 152.344 C 78.513 155.771, 88.662 158.970, 92.316 158.987 C 93.864 158.994, 95.930 159.427, 96.906 159.950 C 100.018 161.615, 120.920 157.615, 127.994 154 C 132.853 151.517, 141.653 145.512, 145.909 141.775 C 150.704 137.565, 157.556 126.254, 161.221 116.500 C 167.638 99.417, 164.938 78.363, 154.422 63.500 C 152.476 60.750, 150.167 57.375, 149.290 56 C 145.092 49.417, 129.338 39.411, 120.108 37.464 C 116.593 36.723, 113.240 35.640, 112.658 35.058 C 112.076 34.476, 111.352 34.075, 111.050 34.168 C 110.748 34.260, 106 34.640, 100.500 35.011 M 64.851 86.270 C 54.722 102.600, 49.607 111.731, 50.351 112.155 C 50.983 112.515, 53.608 113.124, 56.184 113.509 L 60.867 114.207 63.914 109.354 C 65.589 106.684, 67.102 104.099, 67.277 103.609 C 67.544 102.859, 82.831 105.043, 88.145 106.589 C 89.115 106.872, 90.053 108.593, 90.429 110.784 C 91.957 119.665, 92.053 119.864, 95.317 120.875 C 97.068 121.417, 100.374 122.150, 102.664 122.503 L 106.828 123.147 107.873 117.823 C 108.449 114.896, 109.435 109.746, 110.064 106.379 L 111.209 100.258 114.678 101.040 C 119.888 102.215, 121.470 104.215, 126.689 116.228 C 129.984 123.813, 132.122 127.476, 133.575 128.029 C 136.225 129.036, 145 130.380, 145 129.779 C 145 127.934, 136.500 109.034, 134.478 106.382 L 131.939 103.053 134.719 102.489 C 143.400 100.727, 148.034 95.477, 148.223 87.192 C 148.365 80.975, 145.800 76.370, 140.733 73.740 C 136.815 71.708, 107.244 65.422, 106.255 66.412 C 105.945 66.722, 104.462 73.530, 102.959 81.541 C 101.457 89.551, 100.044 96.290, 99.819 96.514 C 99.594 96.739, 97.917 89.317, 96.091 80.020 L 92.773 63.117 87.837 62.058 C 85.123 61.476, 82.361 61.009, 81.701 61.020 C 81.040 61.031, 73.458 72.394, 64.851 86.270 M 78.332 84.846 L 73.164 93.500 77.832 94.654 C 80.399 95.289, 83.662 95.851, 85.083 95.904 L 87.665 96 86.083 86.575 C 85.212 81.391, 84.275 76.934, 84 76.671 C 83.725 76.408, 81.174 80.086, 78.332 84.846 M 114.210 84.149 C 113.581 87.531, 113.256 90.605, 113.488 90.981 C 114.337 92.354, 131.145 94.398, 132.856 93.335 C 135.575 91.649, 137.140 87.498, 136.094 84.748 C 135.070 82.055, 132.152 80.660, 124.201 79.064 C 115.424 77.302, 115.489 77.269, 114.210 84.149" stroke="none" fill="#533521" fill-rule="evenodd"/></svg>